HIERARCHY
ROOT Hips
{
	OFFSET 0.000000 0.000000 0.000000 
	CHANNELS 6 Xposition Yposition Zposition Yrotation Zrotation Xrotation 
	JOINT Lumbar
	{
		OFFSET 0.000000 0.000000 0.000000 
		CHANNELS 3 Zrotation Xrotation Yrotation
		JOINT Neck
		{
			OFFSET 0.000000 0.445665 0.000000 
			CHANNELS 3 Zrotation Xrotation Yrotation
			End Site
			{
				OFFSET 0.000000 0.227535 0.000000 
			}
		}
		JOINT RightShoulder
		{
			OFFSET 0.019635 0.377685 0.194865 
			CHANNELS 3 Zrotation Xrotation Yrotation
			JOINT RightElbow
			{
				OFFSET 0.000000 -0.243375 0.000000 
				CHANNELS 2 Zrotation Yrotation
				JOINT RightWrist
				{
					OFFSET 0.000000 -0.264825 0.000000 
					CHANNELS 2 Zrotation Xrotation
					End Site
					{
						OFFSET 0.006600 -0.176220 0.000990 
					}
				}
			}
		}
		JOINT LeftShoulder
		{
			OFFSET 0.019635 0.377685 -0.194865 
			CHANNELS 3 Zrotation Xrotation Yrotation
			JOINT LeftElbow
			{
				OFFSET 0.000000 -0.243375 0.000000 
				CHANNELS 2 Zrotation Yrotation
				JOINT LeftWrist
				{
					OFFSET 0.000000 -0.264825 0.000000 
					CHANNELS 2 Zrotation Xrotation
					End Site
					{
						OFFSET 0.006600 -0.176220 -0.000990 
					}
				}
			}
		}
	}
	JOINT RightHip
	{
		OFFSET 0.052140 -0.069960 0.075570 
		CHANNELS 3 Zrotation Xrotation Yrotation
		JOINT RightKnee
		{
			OFFSET 0.000000 -0.402270 0.000000 
			CHANNELS 1 Zrotation
			JOINT RightAnkle
			{
				OFFSET 0.000000 -0.404085 0.000000 
				CHANNELS 3 Zrotation Xrotation Yrotation
				End Site
				{
					OFFSET 0.204105 -0.089430 0.008415 
				}
			}
		}
	}
	JOINT LeftHip
	{
		OFFSET 0.052140 -0.069960 -0.075570 
		CHANNELS 3 Zrotation Xrotation Yrotation
		JOINT LeftKnee
		{
			OFFSET 0.000000 -0.402270 0.000000 
			CHANNELS 1 Zrotation
			JOINT LeftAnkle
			{
				OFFSET 0.000000 -0.404085 0.000000 
				CHANNELS 3 Zrotation Xrotation Yrotation
				End Site
				{
					OFFSET 0.204105 -0.089430 -0.008415 
				}
			}
		}
	}
}
MOTION
Frames: 22
Frame Time: 0.02
-0.00017 -3e-05 9e-05 -179.64975 -39.87426 -3.22849 48.50602 2.83375 -1.2677 -11.85971 -2.46233 -1.69987 52.84216 -101.32445 55.63087 6.62523 91.7786 12.44609 -1.31569 22.46635 104.3584 -55.63248 8.88641 -85.75563 9.0344 1.84802 44.72941 -5.77632 -3.66266 -21.88284 -7.01161 -2.62776 -3.53903 48.82501 10.12609 -1.92372 -27.08926 -7.09359 2.58045 3.5362
-0.00023 -4e-05 0.0001 -179.65497 -39.8817 -3.22919 48.5003 2.83331 -1.2765 -11.86635 -2.46565 -1.70002 53.04431 -101.31554 55.6312 6.59416 91.7776 12.47636 -1.28665 22.65894 104.31178 -55.63263 8.86277 -85.76591 9.11268 1.82407 44.73048 -5.82055 -3.8897 -21.88419 -7.00595 -2.60726 -3.52682 48.82774 10.15128 -1.81917 -27.09028 -7.09285 2.57952 3.53296
-0.00029 -5e-05 0.00012 -179.66011 -39.8888 -3.22986 48.49428 2.83285 -1.28533 -11.87302 -2.46895 -1.70018 53.2459 -101.30664 55.63152 6.56319 91.77664 12.50653 -1.2577 22.85099 104.26529 -55.63278 8.83923 -85.77617 9.1907 1.80018 44.73113 -5.86471 -4.11639 -21.88551 -7.0003 -2.58678 -3.51463 48.83009 10.17645 -1.71463 -27.09127 -7.09209 2.57856 3.52972
-0.00035 -6e-05 0.00013 -179.66531 -39.89615 -3.23056 48.48851 2.8324 -1.29411 -11.87965 -2.47226 -1.70033 53.44745 -101.29776 55.63184 6.53222 91.77565 12.5367 -1.22875 23.043 104.21882 -55.63293 8.81567 -85.78641 9.26873 1.7763 44.73212 -5.90882 -4.34279 -21.88686 -6.99465 -2.56633 -3.50246 48.83274 10.20157 -1.61036 -27.09228 -7.09135 2.57763 3.52649
-0.00041 -6e-05 0.00014 -179.67062 -39.90401 -3.23129 48.48319 2.83199 -1.30284 -11.88624 -2.4756 -1.70048 53.64953 -101.28887 55.63217 6.50115 91.77462 12.56697 -1.1997 23.23551 104.1722 -55.63309 8.79198 -85.79669 9.34705 1.75236 44.73369 -5.95296 -4.56939 -21.88825 -6.98901 -2.54587 -3.49027 48.83594 10.22666 -1.5062 -27.09332 -7.09063 2.57675 3.52329
-0.00048 -7e-05 0.00016 -179.67541 -39.90953 -3.23186 48.47571 2.83143 -1.31187 -11.89305 -2.47883 -1.70065 53.85005 -101.27996 55.63249 6.47036 91.7738 12.5969 -1.17094 23.4266 104.12599 -55.63324 8.76876 -85.8069 9.42442 1.7286 44.73245 -5.99715 -4.79626 -21.88943 -6.98334 -2.52537 -3.47809 48.83653 10.25202 -1.40086 -27.09423 -7.08981 2.57562 3.51997
-0.00054 -8e-05 0.00017 -179.68123 -39.91966 -3.23275 48.47251 2.83116 -1.32029 -11.89942 -2.48226 -1.70079 54.05352 -101.2711 55.63282 6.43906 91.77255 12.62749 -1.14165 23.62034 104.07903 -55.63339 8.74465 -85.81721 9.50359 1.7045 44.73678 -6.04121 -5.02237 -21.89102 -6.97772 -2.50496 -3.4659 48.84228 10.27682 -1.29802 -27.0954 -7.08919 2.57499 3.51687
-0.0006 -9e-05 0.00018 -179.68614 -39.92569 -3.23335 48.46552 2.83063 -1.32925 -11.90619 -2.48551 -1.70095 54.25424 -101.26219 55.63314 6.40823 91.7717 12.65748 -1.11284 23.81163 104.03274 -55.63354 8.72134 -85.82746 9.58114 1.68071 44.73615 -6.08538 -5.24914 -21.89225 -6.97206 -2.48448 -3.45373 48.84344 10.30213 -1.19286 -27.09633 -7.08839 2.5739 3.51358
-0.00066 -0.0001 0.00019 -179.68975 -39.92605 -3.23356 48.45321 2.82976 -1.33898 -11.91349 -2.48853 -1.70115 54.45178 -101.25323 55.63345 6.37796 91.77134 12.68672 -1.08461 24.00002 103.98733 -55.63369 8.69908 -85.83754 9.6566 1.65729 44.72867 -6.12976 -5.47704 -21.89297 -6.96632 -2.46387 -3.44156 48.83826 10.32808 -1.08481 -27.09696 -7.08734 2.57224 3.51002
-0.00072 -0.00011 0.00021 -179.70028 -39.95703 -3.2359 48.46944 2.83075 -1.34463 -11.91785 -2.49284 -1.70115 54.66817 -101.24458 55.63383 6.3444 91.76818 12.72023 -1.05302 24.20541 103.93705 -55.63386 8.67099 -85.84831 9.74375 1.63173 44.7582 -6.17315 -5.69938 -21.89641 -6.96094 -2.44387 -3.42932 48.86735 10.3504 -0.99322 -27.09927 -7.08763 2.57383 3.50791
-0.00078 -0.00012 0.00022 -179.69656 -39.92474 -3.23384 48.4268 2.8279 -1.35864 -11.92834 -2.49444 -1.70157 54.84442 -101.23527 55.63406 6.31785 91.7709 12.74475 -1.02855 24.3747 103.89691 -55.63397 8.65504 -85.85778 9.80644 1.6107 44.71126 -6.21848 -5.9328 -21.89424 -6.95485 -2.42265 -3.41724 48.82559 10.38037 -0.86706 -27.0981 -7.08515 2.5686 3.50278
-0.00089 -0.00012 0.00023 -179.65039 -39.70635 -3.21868 48.21015 2.81379 -1.39778 -11.9564 -2.48841 -1.70321 54.91292 -101.2242 55.63382 6.3101 91.79027 12.74421 -1.02351 24.44619 103.88612 -55.63387 8.67408 -85.86257 9.79965 1.60212 44.43938 -6.27038 -6.20226 -21.87549 -6.94651 -2.39751 -3.40544 48.5757 10.43165 -0.64366 -27.08669 -7.07471 2.54402 3.48904
-0.001 -0.00012 0.00023 -179.59054 -39.42694 -3.19929 47.93688 2.79598 -1.44488 -11.99045 -2.47969 -1.70525 54.94083 -101.21245 55.63343 6.30944 91.81547 12.73472 -1.02561 24.48127 103.88524 -55.63371 8.70503 -85.86627 9.76872 1.5981 44.09374 -6.32398 -6.48167 -21.85133 -6.93751 -2.37124 -3.39383 48.25743 10.49057 -0.38599 -27.07192 -7.06156 2.51269 3.47232
-0.00111 -0.00011 0.00023 -179.53907 -39.18335 -3.18248 47.69739 2.78033 -1.48694 -12.02127 -2.47232 -1.70705 54.98555 -101.201 55.63312 6.30583 91.83767 12.7296 -1.02453 24.53217 103.87886 -55.63358 8.72942 -85.87122 9.75044 1.59199 43.79141 -6.37602 -6.75299 -21.83041 -6.92898 -2.34583 -3.38222 47.97911 10.54581 -0.14557 -27.05912 -7.04988 2.48485 3.45718
-0.00122 -0.00011 0.00024 -179.4783 -38.90466 -3.16284 47.42302 2.7626 -1.53511 -12.05432 -2.46443 -1.70909 55.03645 -101.1896 55.63276 6.30117 91.86133 12.7232 -1.02327 24.58588 103.87677 -55.63342 8.75857 -85.87303 9.72515 1.58593 43.44663 -6.43148 -7.0399 -21.80613 -6.91969 -2.31897 -3.3702 47.66224 10.60192 0.102 -27.04441 -7.03719 2.45524 3.44108
-0.00134 -0.00011 0.00024 -179.43382 -38.68563 -3.14815 47.20885 2.74836 -1.57232 -12.08405 -2.45698 -1.71073 55.06568 -101.17792 55.63247 6.30027 91.88338 12.71731 -1.02398 24.62534 103.86802 -55.63332 8.78078 -85.88106 9.70855 1.58087 43.17398 -6.48011 -7.29605 -21.78763 -6.91185 -2.29487 -3.35913 47.41062 10.65805 0.34283 -27.03293 -7.02598 2.4277 3.42627
-0.00145 -0.00012 0.00023 -179.43639 -38.63753 -3.14766 47.16629 2.74445 -1.57838 -12.10398 -2.45134 -1.71112 55.03817 -101.16577 55.63243 6.30889 91.89914 12.71521 -1.02911 24.63267 103.83893 -55.63342 8.77956 -85.90705 9.72362 1.57715 43.10821 -6.51047 -7.47036 -21.78589 -6.9081 -2.27859 -3.35043 47.34606 10.71219 0.55601 -27.03079 -7.01945 2.40763 3.4158
-0.00156 -0.00014 0.00021 -179.45604 -38.65297 -3.15238 47.18759 2.74421 -1.57295 -12.12021 -2.44626 -1.7111 54.99159 -101.1533 55.63246 6.32088 91.91315 12.71387 -1.03584 24.62743 103.80273 -55.63359 8.77117 -85.93924 9.74798 1.57427 43.1192 -6.53373 -7.61237 -21.79022 -6.90583 -2.26516 -3.34273 47.3511 10.76608 0.76114 -27.03207 -7.01452 2.38986 3.40674
-0.00168 -0.00015 0.00019 -179.46879 -38.6454 -3.15506 47.18557 2.74243 -1.57202 -12.13761 -2.44097 -1.71128 54.95821 -101.14089 55.63246 6.33078 91.92825 12.71209 -1.04136 24.62884 103.76947 -55.63371 8.76693 -85.96825 9.7669 1.57124 43.10226 -6.55959 -7.76545 -21.79212 -6.90293 -2.25049 -3.33471 47.33114 10.82025 0.97065 -27.03204 -7.00891 2.37094 3.39698
-0.00179 -0.00016 0.00017 -179.4776 -38.612 -3.15629 47.15861 2.74 -1.57429 -12.15738 -2.4354 -1.71139 54.90414 -101.12891 55.63246 6.34334 91.94235 12.71051 -1.04917 24.6243 103.73774 -55.63388 8.75938 -85.99874 9.79001 1.56762 43.05469 -6.58812 -7.93392 -21.79255 -6.89986 -2.23551 -3.32611 47.28203 10.87416 1.17915 -27.0309 -7.00302 2.35219 3.38731
-0.0019 -0.00018 0.00015 -179.49862 -38.64694 -3.16175 47.1981 2.73981 -1.56722 -12.17125 -2.43057 -1.71155 54.8893 -101.11585 55.63247 6.35099 91.95801 12.70865 -1.0525 24.63055 103.70106 -55.63398 8.75681 -86.02766 9.80706 1.5651 43.08849 -6.6094 -8.06279 -21.79744 -6.89749 -2.22189 -3.31897 47.30953 10.92822 1.38635 -27.03287 -6.99814 2.33379 3.37787
-0.00199 -0.00019 0.00012 -179.5513 -38.86725 -3.17823 47.41791 2.74541 -1.53558 -12.16979 -2.42766 -1.71201 54.98634 -101.10082 55.63246 6.34484 91.97856 12.70737 -1.0429 24.66198 103.65179 -55.63388 8.77029 -86.05036 9.80374 1.56756 43.34267 -6.61212 -8.08763 -21.81408 -6.8967 -2.21111 -3.31571 47.54507 10.98485 1.60087 -27.04308 -6.99569 2.31529 3.36835
